<svg xmlns="http://www.w3.org/2000/svg" width="37" height="37" viewBox="0 0 37 37">
  <g id="Group_184" data-name="Group 184" transform="translate(-311 -3961)">
    <circle id="Ellipse_6" data-name="Ellipse 6" cx="18.5" cy="18.5" r="18.5" transform="translate(311 3961)" fill="#466ffd"/>
    <path id="Path_323" data-name="Path 323" d="M1.875,64A1.875,1.875,0,0,0,.75,67.375l8.5,6.375a1.254,1.254,0,0,0,1.5,0l8.5-6.375A1.875,1.875,0,0,0,18.125,64ZM0,68.375V76.5A2.5,2.5,0,0,0,2.5,79h15A2.5,2.5,0,0,0,20,76.5V68.375L11.5,74.75a2.5,2.5,0,0,1-3,0Z" transform="translate(319.861 3908.557)" fill="#fff"/>
  </g>
</svg>
