<svg xmlns="http://www.w3.org/2000/svg" width="37" height="37" viewBox="0 0 37 37">
  <g id="Group_183" data-name="Group 183" transform="translate(-358 -3961)">
    <circle id="Ellipse_7" data-name="Ellipse 7" cx="18.5" cy="18.5" r="18.5" transform="translate(358 3961)" fill="#466ffd"/>
    <path id="Path_322" data-name="Path 322" d="M4.478,20H.33V6.647H4.478ZM2.4,4.826A2.413,2.413,0,1,1,4.8,2.4,2.422,2.422,0,0,1,2.4,4.826ZM20,20H15.857V13.5c0-1.549-.031-3.536-2.156-3.536-2.156,0-2.487,1.683-2.487,3.424V20H7.071V6.647h3.978V8.469h.058a4.358,4.358,0,0,1,3.924-2.156c4.2,0,4.969,2.763,4.969,6.353V20Z" transform="translate(367 3968.072)" fill="#fff"/>
  </g>
</svg>
