<svg xmlns="http://www.w3.org/2000/svg" width="37" height="37" viewBox="0 0 37 37">
  <g id="Group_185" data-name="Group 185" transform="translate(-264 -3961)">
    <circle id="Ellipse_8" data-name="Ellipse 8" cx="18.5" cy="18.5" r="18.5" transform="translate(264 3961)" fill="#466ffd"/>
    <path id="Path_324" data-name="Path 324" d="M6.441.939A1.558,1.558,0,0,0,4.59.033L1.152.97A1.567,1.567,0,0,0,0,2.478a17.5,17.5,0,0,0,17.5,17.5,1.567,1.567,0,0,0,1.508-1.152l.937-3.437a1.558,1.558,0,0,0-.906-1.851l-3.75-1.562a1.557,1.557,0,0,0-1.809.453L11.9,14.353A13.2,13.2,0,0,1,5.625,8.076L7.55,6.5A1.559,1.559,0,0,0,8,4.693L6.441.943Z" transform="translate(272.25 3969.522)" fill="#fff"/>
  </g>
</svg>
