<svg xmlns="http://www.w3.org/2000/svg" width="60" height="60" viewBox="0 0 60 60">
  <g id="Group_320" data-name="Group 320" transform="translate(-1290 -6146)">
    <rect id="Rectangle_538" data-name="Rectangle 538" width="60" height="60" rx="11" transform="translate(1290 6146)" fill="#466ffd"/>
    <path id="Path_624" data-name="Path 624" d="M2.718,64a2.718,2.718,0,0,0-1.631,4.892l12.321,9.241a1.818,1.818,0,0,0,2.174,0L27.9,68.892A2.718,2.718,0,0,0,26.272,64ZM0,70.342V82.119a3.627,3.627,0,0,0,3.624,3.624H25.366a3.627,3.627,0,0,0,3.624-3.624V70.342L16.669,79.582a3.618,3.618,0,0,1-4.348,0Z" transform="translate(1305.505 6101.129)" fill="#fff"/>
  </g>
</svg>
