<svg xmlns="http://www.w3.org/2000/svg" width="60" height="60" viewBox="0 0 60 60">
  <g id="Group_319" data-name="Group 319" transform="translate(-1290 -6146)">
    <rect id="Rectangle_538" data-name="Rectangle 538" width="60" height="60" rx="11" transform="translate(1290 6146)" fill="#466ffd"/>
    <path id="Path_623" data-name="Path 623" d="M17.621-.021a14.6,14.6,0,0,1,14.6,14.6,1.51,1.51,0,0,1-3.021,0A11.581,11.581,0,0,0,17.621,3a1.51,1.51,0,0,1,0-3.021Zm.5,12.083a2.014,2.014,0,1,1-2.014,2.014A2.014,2.014,0,0,1,18.124,12.062ZM16.11,7.531a1.507,1.507,0,0,1,1.51-1.51,8.559,8.559,0,0,1,8.559,8.559,1.51,1.51,0,0,1-3.021,0,5.538,5.538,0,0,0-5.538-5.538A1.507,1.507,0,0,1,16.11,7.531ZM7.394.067a2.509,2.509,0,0,1,2.983,1.46l2.517,6.041a2.509,2.509,0,0,1-.73,2.914l-3.1,2.542A21.269,21.269,0,0,0,19.175,23.137l2.536-3.1a2.512,2.512,0,0,1,2.914-.73l6.041,2.517a2.509,2.509,0,0,1,1.46,2.983l-1.51,5.538A2.512,2.512,0,0,1,28.193,32.2,28.2,28.2,0,0,1,0,4.006,2.525,2.525,0,0,1,1.856,1.577L7.394.067Z" transform="translate(1303.89 6161.911)" fill="#fff"/>
  </g>
</svg>
