<svg xmlns="http://www.w3.org/2000/svg" xmlns:xlink="http://www.w3.org/1999/xlink" width="59.861" height="59.971" viewBox="0 0 59.861 59.971">
  <defs>
    <clipPath id="clip-path">
      <rect id="Rectangle_87" data-name="Rectangle 87" width="59.861" height="59.971" fill="#fff"/>
    </clipPath>
  </defs>
  <g id="Group_83" data-name="Group 83" clip-path="url(#clip-path)">
    <path id="Path_189" data-name="Path 189" d="M54.419,0H5.442A5.452,5.452,0,0,0,0,5.451V49.975a5.453,5.453,0,0,0,5.442,5.452h.081a5.451,5.451,0,0,0,5.361,4.543H12.7a5.45,5.45,0,0,0,5.36-4.543H41.8a5.45,5.45,0,0,0,5.36,4.543h1.814a5.448,5.448,0,0,0,5.36-4.543h.084a5.454,5.454,0,0,0,5.442-5.452V5.451A5.453,5.453,0,0,0,54.419,0M12.7,58.153H10.884a3.633,3.633,0,0,1-3.513-2.725H16.21A3.632,3.632,0,0,1,12.7,58.153m36.277,0H47.161a3.632,3.632,0,0,1-3.512-2.725h8.839a3.633,3.633,0,0,1-3.513,2.725m9.071-8.177a3.635,3.635,0,0,1-3.628,3.635H5.442a3.634,3.634,0,0,1-3.628-3.635V5.451A3.635,3.635,0,0,1,5.442,1.817H54.419a3.636,3.636,0,0,1,3.628,3.635Z" transform="translate(0 0)" fill="#fff"/>
    <path id="Path_190" data-name="Path 190" d="M53.834,29.695H26.624A2.726,2.726,0,0,0,23.9,32.421V59.681a2.726,2.726,0,0,0,2.721,2.726h27.21a2.726,2.726,0,0,0,2.72-2.726V32.421a2.726,2.726,0,0,0-2.72-2.726m.906,29.986a.907.907,0,0,1-.906.908H26.624a.907.907,0,0,1-.906-.908V32.421a.909.909,0,0,1,.906-.909h27.21a.909.909,0,0,1,.906.909Z" transform="translate(-10.298 -12.763)" fill="#fff"/>
    <path id="Path_191" data-name="Path 191" d="M37.092,15.235H51.6a3.635,3.635,0,0,0,0-7.269H37.092a3.635,3.635,0,0,0,0,7.269m0-5.451H51.6a1.817,1.817,0,0,1,0,3.635H37.092a1.817,1.817,0,0,1,0-3.635" transform="translate(-14.418 -3.424)" fill="#fff"/>
    <path id="Path_192" data-name="Path 192" d="M52.558,46.689H48.5V42.62a2.569,2.569,0,0,0-2.564-2.568H43.448a2.569,2.569,0,0,0-2.563,2.568v4.069H36.824a2.568,2.568,0,0,0-2.563,2.568v2.489a2.568,2.568,0,0,0,2.563,2.568h4.061v4.068a2.569,2.569,0,0,0,2.563,2.568h2.484A2.569,2.569,0,0,0,48.5,58.383V54.315h4.062a2.569,2.569,0,0,0,2.563-2.568V49.257a2.568,2.568,0,0,0-2.563-2.568m.749,5.057a.751.751,0,0,1-.749.75H47.589a.907.907,0,0,0-.907.909v4.977a.753.753,0,0,1-.75.752H43.448a.752.752,0,0,1-.749-.752V53.406a.907.907,0,0,0-.907-.909H36.824a.751.751,0,0,1-.749-.75V49.257a.751.751,0,0,1,.749-.752h4.968A.907.907,0,0,0,42.7,47.6V42.62a.751.751,0,0,1,.749-.75h2.484a.752.752,0,0,1,.75.75V47.6a.907.907,0,0,0,.907.908h4.969a.751.751,0,0,1,.749.752Z" transform="translate(-14.761 -17.214)" fill="#fff"/>
  </g>
</svg>
