<svg xmlns="http://www.w3.org/2000/svg" xmlns:xlink="http://www.w3.org/1999/xlink" width="54.583" height="54.68" viewBox="0 0 54.583 54.68">
  <defs>
    <clipPath id="clip-path">
      <rect id="Rectangle_88" data-name="Rectangle 88" width="54.583" height="54.68" fill="#fff"/>
    </clipPath>
  </defs>
  <g id="Group_85" data-name="Group 85" clip-path="url(#clip-path)">
    <path id="Path_193" data-name="Path 193" d="M53.378,8.918,45.678,1.2a4.11,4.11,0,0,0-7.017,2.912c0,1.944,1.134,2.842,2.129,3.839l-5.766,5.776-3.04-3.046a1.118,1.118,0,0,0-1.583,0L6.491,34.638a3.488,3.488,0,0,0-.294,4.6A6.534,6.534,0,0,0,5.481,47.6L.328,52.765a1.121,1.121,0,0,0,1.583,1.586l5.153-5.162a6.5,6.5,0,0,0,8.35-.717,3.471,3.471,0,0,0,4.333-.061c.2-.163-1.322,1.349,24.166-24.186a1.124,1.124,0,0,0,0-1.586l-3.041-3.046,5.766-5.777.925.927a4.114,4.114,0,0,0,5.813-5.824M7.787,46.878a4.29,4.29,0,0,1-.03-6.033l6.052,6.063a4.272,4.272,0,0,1-6.022-.03M33.272,31.713l-1.953-1.957a1.12,1.12,0,0,0-1.583,1.586L31.689,33.3l-4.3,4.307-1.952-1.957a1.121,1.121,0,0,0-1.583,1.586l1.953,1.957-4.3,4.307-1.953-1.957a1.121,1.121,0,0,0-1.583,1.586l1.953,1.957-1.5,1.507a1.245,1.245,0,0,1-1.671.084c-.092-.076-8.708-8.713-8.76-8.776a1.25,1.25,0,0,1,0-1.582c.061-.075,16.23-16.269,16.3-16.337L34.636,30.346Zm8.267-8.282-2.386,2.39L37.2,23.864a1.12,1.12,0,1,0-1.583,1.586l1.953,1.957L36.219,28.76,25.872,18.394l5.32-5.33L41.539,23.431M39.29,18.005l-2.683-2.688,5.766-5.776,2.683,2.688Zm12.5-4.849a1.868,1.868,0,0,1-2.647,0l-7.7-7.715A1.873,1.873,0,0,1,44.094,2.79l7.7,7.715a1.879,1.879,0,0,1,0,2.652" transform="translate(0 0)" fill="#fff"/>
  </g>
</svg>
