<svg xmlns="http://www.w3.org/2000/svg" xmlns:xlink="http://www.w3.org/1999/xlink" width="55.78" height="60.836" viewBox="0 0 55.78 60.836">
  <defs>
    <clipPath id="clip-path">
      <rect id="Rectangle_85" data-name="Rectangle 85" width="55.78" height="60.836" fill="#fff"/>
    </clipPath>
  </defs>
  <g id="Group_76" data-name="Group 76" clip-path="url(#clip-path)">
    <path id="Path_184" data-name="Path 184" d="M48.906,0H17.149a6.889,6.889,0,0,0-6.874,6.888V19.913H.92a.92.92,0,0,0-.92.921v7.682a.92.92,0,0,0,.92.921H2.26V59.913a.921.921,0,0,0,.92.922H26.006a.921.921,0,0,0,.92-.922V53.969H48.906a6.889,6.889,0,0,0,6.874-6.888V6.888A6.889,6.889,0,0,0,48.906,0M1.84,21.756h25.5v5.837H1.84ZM4.1,48.473H9.238a.922.922,0,0,0,0-1.844H4.1V43.1h7.946a.922.922,0,0,0,0-1.844H4.1v-3.38H16.74V51.854H4.1ZM25.086,58.991H4.1V53.7h13.56a.92.92,0,0,0,.92-.922V36.957a.92.92,0,0,0-.92-.921H4.1v-6.6H25.086Zm1.84-29.554h1.339a.92.92,0,0,0,.92-.921V20.834a.92.92,0,0,0-.92-.921H12.115V6.888a5.045,5.045,0,0,1,5.034-5.045H32.107V52.125H26.926ZM53.94,47.081a5.043,5.043,0,0,1-5.034,5.044H33.948V1.843H48.906A5.045,5.045,0,0,1,53.94,6.888Z" transform="translate(0 0)" fill="#fff"/>
    <path id="Path_185" data-name="Path 185" d="M34.56,8.817a5.8,5.8,0,0,0-4.129,1.713,5.864,5.864,0,0,0,0,8.273,5.829,5.829,0,0,0,8.258,0,5.865,5.865,0,0,0,0-8.273A5.8,5.8,0,0,0,34.56,8.817m-2.828,3.016a3.969,3.969,0,0,1,4.922-.569l-5.489,5.5a4.012,4.012,0,0,1,.567-4.931M37.388,17.5a3.967,3.967,0,0,1-4.922.568l5.489-5.5a4.014,4.014,0,0,1-.567,4.931" transform="translate(-12.448 -3.812)" fill="#fff"/>
    <path id="Path_186" data-name="Path 186" d="M68.963,10.532a5.844,5.844,0,1,0,8.257,0,5.864,5.864,0,0,0-8.257,0m1.3,1.3a3.977,3.977,0,0,1,4.922-.568l-5.489,5.5a4.013,4.013,0,0,1,.567-4.931M75.919,17.5A3.994,3.994,0,0,1,71,18.07l5.49-5.5a4.015,4.015,0,0,1-.568,4.931" transform="translate(-29.148 -3.814)" fill="#fff"/>
    <path id="Path_187" data-name="Path 187" d="M68.963,38.947a5.844,5.844,0,1,0,8.257,0,5.864,5.864,0,0,0-8.257,0m1.3,1.3a3.978,3.978,0,0,1,4.922-.569l-5.489,5.5a4.013,4.013,0,0,1,.567-4.931m5.656,5.666A3.993,3.993,0,0,1,71,46.485l5.49-5.5a4.015,4.015,0,0,1-.568,4.931" transform="translate(-29.148 -16.099)" fill="#fff"/>
    <path id="Path_188" data-name="Path 188" d="M68.963,67.361a5.844,5.844,0,1,0,8.257,0,5.866,5.866,0,0,0-8.257,0m1.3,1.3a3.981,3.981,0,0,1,4.922-.568L69.7,73.6a4.015,4.015,0,0,1,.567-4.932m5.656,5.667A3.992,3.992,0,0,1,71,74.9l5.49-5.5a4.017,4.017,0,0,1-.568,4.932" transform="translate(-29.148 -28.384)" fill="#fff"/>
  </g>
</svg>
