<svg xmlns="http://www.w3.org/2000/svg" width="34.96" height="34.967" viewBox="0 0 34.96 34.967">
  <g id="Group_99" data-name="Group 99" transform="translate(0)">
    <path id="Path_164" data-name="Path 164" d="M606.057,1099.41c-.42.423-1.844,2.376-1.844,2.376s-1.716.341-4.925-2.4-3.136-4.494-3.136-4.494,1.708-1.709,2.062-2.189-2.242-4.6-2.762-4.711a4.106,4.106,0,0,0-3.972,2.736c-.7,2.406.58,7,5.571,11.272s9.728,4.826,12,3.762h0a4.1,4.1,0,0,0,2.089-4.347c-.194-.5-4.661-2.424-5.081-2" transform="translate(-583.591 -1079.42)" fill="#fff"/>
    <path id="Path_165" data-name="Path 165" d="M594.065,1066.366a17.476,17.476,0,1,0-31.822,13.2l-1.967,7.591,7.9-1.843A17.4,17.4,0,0,0,577,1087.73a17.646,17.646,0,0,0,3.912-.442,17.467,17.467,0,0,0,13.158-20.922m-29.106,12.744-.319-.471a14.965,14.965,0,1,1,4.418,4.27l-.444-.28-4.861,1.134Z" transform="translate(-559.549 -1052.763)" fill="#fff"/>
  </g>
</svg>
