<?xml version="1.0" encoding="UTF-8"?>
<svg id="Layer_1" data-name="Layer 1" xmlns="http://www.w3.org/2000/svg" viewBox="0 0 520 520">
  <defs>
    <style>
      .cls-1 {
        fill: #466ffd;
      }

      .cls-1, .cls-2 {
        stroke-width: 0px;
      }

      .cls-2 {
        fill: #88fbd2;
      }
    </style>
  </defs>
  <g>
    <path class="cls-1" d="M405.49,228.92c61.77-.75,111.66-51.08,111.66-113.03S466.51,2.85,404.11,2.85s-112.97,50.64-112.97,113.03v113.1l114.35-.06Z"/>
    <path class="cls-2" d="M347.35,115.89c0-31.26,25.45-56.77,56.7-56.77s56.77,25.51,56.77,56.77-24.7,56.02-55.39,56.77l-58.08.06v-56.83Z"/>
    <circle class="cls-1" cx="404.14" cy="115.92" r="27.07"/>
  </g>
  <g>
    <path class="cls-2" d="M228.92,114.57c-.75-61.77-51.08-111.66-113.03-111.66-62.39,0-113.03,50.64-113.03,113.03,0,62.39,50.64,112.97,113.03,112.97h113.1s-.06-114.35-.06-114.35Z"/>
    <path class="cls-1" d="M115.89,172.72c-31.26,0-56.77-25.45-56.77-56.7,0-31.32,25.51-56.77,56.77-56.77,30.82,0,56.02,24.7,56.77,55.39l.06,58.08h-56.83Z"/>
  </g>
  <g>
    <path class="cls-2" d="M114.51,291.08c-61.77.75-111.66,51.08-111.66,113.03s50.64,113.03,113.03,113.03,112.97-50.64,112.97-113.03v-113.1l-114.35.06Z"/>
    <path class="cls-1" d="M172.65,404.11c0,31.26-25.45,56.77-56.7,56.77s-56.77-25.51-56.77-56.77,24.7-56.02,55.39-56.77l58.08-.06v56.83Z"/>
  </g>
  <g>
    <path class="cls-2" d="M291.08,405.43c.75,61.77,51.08,111.66,113.03,111.66,62.39,0,113.03-50.64,113.03-113.03,0-62.39-50.64-112.97-113.03-112.97h-113.1s.06,114.35.06,114.35Z"/>
    <path class="cls-1" d="M404.11,347.28c31.26,0,56.77,25.45,56.77,56.7,0,31.32-25.51,56.77-56.77,56.77-30.82,0-56.02-24.7-56.77-55.39l-.06-58.08h56.83Z"/>
  </g>
</svg>