<svg xmlns="http://www.w3.org/2000/svg" width="49" height="49" viewBox="0 0 49 49">
  <g id="Group_21" data-name="Group 21" transform="translate(1847 -991)">
    <g id="Ellipse_1" data-name="Ellipse 1" transform="translate(-1847 991)" fill="none" stroke="#466ffd" stroke-width="2">
      <circle cx="24.5" cy="24.5" r="24.5" stroke="none"/>
      <circle cx="24.5" cy="24.5" r="23.5" fill="none"/>
    </g>
    <path id="Path_181" data-name="Path 181" d="M7.73,2.017h6.05a.337.337,0,0,1,.336.336v1.68H7.394V2.353A.337.337,0,0,1,7.73,2.017Zm-2.353.336V20.165H16.132V2.353A2.354,2.354,0,0,0,13.78,0H7.73A2.354,2.354,0,0,0,5.377,2.353ZM4.033,4.033H2.689A2.691,2.691,0,0,0,0,6.722V17.476a2.691,2.691,0,0,0,2.689,2.689H4.033ZM17.476,20.165h1.344a2.691,2.691,0,0,0,2.689-2.689V6.722a2.691,2.691,0,0,0-2.689-2.689H17.476ZM9.41,8.738a.674.674,0,0,1,.672-.672h1.344a.674.674,0,0,1,.672.672v2.017h2.017a.674.674,0,0,1,.672.672v1.344a.674.674,0,0,1-.672.672H12.1V15.46a.674.674,0,0,1-.672.672H10.083a.674.674,0,0,1-.672-.672V13.443H7.394a.674.674,0,0,1-.672-.672V11.427a.674.674,0,0,1,.672-.672H9.41Z" transform="translate(-1833.509 1005.326)" fill="#466ffd"/>
  </g>
</svg>
