<svg xmlns="http://www.w3.org/2000/svg" width="62.92" height="62.92" viewBox="0 0 62.92 62.92">
  <g id="logo_navbar_mobile" transform="translate(0)">
    <path id="Path_9" data-name="Path 9" d="M127.454,27.658a13.829,13.829,0,1,0-13.99-13.829V27.665Z" transform="translate(-78.194)" fill="#466ffd"/>
    <path id="Path_10" data-name="Path 10" d="M135.585,29.091a6.941,6.941,0,1,1,7.106,6.945l-7.106.007Z" transform="translate(-93.439 -15.262)" fill="#88fbd2"/>
    <path id="Path_11" data-name="Path 11" d="M150.6,40.471a3.311,3.311,0,1,1,3.311-3.311,3.311,3.311,0,0,1-3.311,3.311" transform="translate(-101.504 -23.327)" fill="#466ffd"/>
    <path id="Path_12" data-name="Path 12" d="M27.658,13.685a13.829,13.829,0,1,0-13.829,13.99H27.665Z" transform="translate(0 -0.017)" fill="#88fbd2"/>
    <path id="Path_13" data-name="Path 13" d="M29.091,36.077a6.941,6.941,0,1,1,6.945-7.106l.007,7.106Z" transform="translate(-15.262 -15.296)" fill="#466ffd"/>
    <path id="Path_14" data-name="Path 14" d="M13.661,113.423a13.829,13.829,0,1,0,13.99,13.829V113.415Z" transform="translate(0 -78.161)" fill="#88fbd2"/>
    <path id="Path_15" data-name="Path 15" d="M36.053,142.514a6.941,6.941,0,1,1-7.106-6.945l7.106-.007Z" transform="translate(-15.279 -93.423)" fill="#466ffd"/>
    <path id="Path_16" data-name="Path 16" d="M113.423,127.429a13.829,13.829,0,1,0,13.829-13.99H113.415Z" transform="translate(-78.161 -78.177)" fill="#88fbd2"/>
    <path id="Path_17" data-name="Path 17" d="M142.514,135.561a6.941,6.941,0,1,1-6.945,7.106l-.007-7.106Z" transform="translate(-93.423 -93.423)" fill="#466ffd"/>
  </g>
</svg>
