<svg id="logo_footer" xmlns="http://www.w3.org/2000/svg" xmlns:xlink="http://www.w3.org/1999/xlink" width="244" height="53.68" viewBox="0 0 244 53.68">
  <defs>
    <clipPath id="clip-path">
      <rect id="Rectangle_98" data-name="Rectangle 98" width="244" height="53.68" fill="none"/>
    </clipPath>
  </defs>
  <path id="Path_215" data-name="Path 215" d="M276.112,68.888H265.479l-1.76,5.087H258.1l9.6-26.736h6.235l9.6,26.736h-5.661ZM274.659,64.6,270.8,53.435,266.933,64.6Z" transform="translate(-189.65 -34.711)" fill="#fff"/>
  <g id="Group_129" data-name="Group 129">
    <g id="Group_128" data-name="Group 128" clip-path="url(#clip-path)">
      <path id="Path_216" data-name="Path 216" d="M366.209,58.031V68.282a2.025,2.025,0,0,0,.516,1.549,2.533,2.533,0,0,0,1.74.478h2.486v4.513h-3.366q-6.77,0-6.77-6.579V58.031h-2.524v-4.4h2.524v-5.24h5.393v5.24h4.743v4.4Z" transform="translate(-263.274 -35.559)" fill="#fff"/>
      <rect id="Rectangle_97" data-name="Rectangle 97" width="5.355" height="28.304" transform="translate(112.092 10.959)" fill="#fff"/>
      <path id="Path_217" data-name="Path 217" d="M460.414,49.444a9.393,9.393,0,0,1,3.48-3.825,9.27,9.27,0,0,1,4.915-1.339,8.637,8.637,0,0,1,4.15.956,8.426,8.426,0,0,1,2.85,2.41V44.624H481.2v21.19H475.81v-3.1a7.968,7.968,0,0,1-2.85,2.467,8.72,8.72,0,0,1-4.188.975,9,9,0,0,1-4.877-1.377,9.631,9.631,0,0,1-3.48-3.882,12.459,12.459,0,0,1-1.281-5.756,12.259,12.259,0,0,1,1.281-5.7m14.63,2.429a5.4,5.4,0,0,0-2.065-2.142,5.52,5.52,0,0,0-2.792-.746,5.377,5.377,0,0,0-4.8,2.85,6.649,6.649,0,0,0-.784,3.309,6.866,6.866,0,0,0,.784,3.347,5.636,5.636,0,0,0,2.065,2.2,5.24,5.24,0,0,0,2.735.765,5.52,5.52,0,0,0,2.792-.746,5.4,5.4,0,0,0,2.065-2.142,7.7,7.7,0,0,0,0-6.693M470.914,39.92l-5.7,3.213v-3.9l5.7-3.1,5.661,3.1v3.9Z" transform="translate(-337.372 -26.551)" fill="#fff"/>
      <path id="Path_218" data-name="Path 218" d="M580.623,69.389a9.154,9.154,0,0,1,2.333,6.674V88.494H577.6V76.79a5.5,5.5,0,0,0-1.262-3.882A4.472,4.472,0,0,0,572.9,71.55a4.582,4.582,0,0,0-3.5,1.358,5.442,5.442,0,0,0-1.281,3.882v11.7h-5.355V67.3h5.355v2.639a7.4,7.4,0,0,1,2.735-2.161A8.467,8.467,0,0,1,574.5,67a8.169,8.169,0,0,1,6.12,2.391" transform="translate(-413.518 -49.23)" fill="#fff"/>
      <path id="Path_219" data-name="Path 219" d="M659.161,58.031V68.282a2.025,2.025,0,0,0,.516,1.549,2.533,2.533,0,0,0,1.74.478H663.9v4.513h-3.366q-6.77,0-6.77-6.579V58.031h-2.524v-4.4h2.524v-5.24h5.393v5.24H663.9v4.4Z" transform="translate(-478.535 -35.559)" fill="#fff"/>
      <path id="Path_220" data-name="Path 220" d="M713.505,40.353a3.14,3.14,0,0,1,0-4.475,3.527,3.527,0,0,1,4.7,0,3.14,3.14,0,0,1,0,4.475,3.527,3.527,0,0,1-4.7,0M718.5,64.966h-5.355V43.776H718.5Z" transform="translate(-523.596 -25.703)" fill="#fff"/>
      <path id="Path_221" data-name="Path 221" d="M751.622,72.037a9.568,9.568,0,0,1,3.71-3.825,10.738,10.738,0,0,1,5.432-1.358,10.445,10.445,0,0,1,6.521,1.97,9.586,9.586,0,0,1,3.462,5.527h-5.776a4.225,4.225,0,0,0-1.549-2.161,4.5,4.5,0,0,0-2.7-.784,4.416,4.416,0,0,0-3.633,1.664,7.362,7.362,0,0,0-1.339,4.724,7.293,7.293,0,0,0,1.339,4.686,4.415,4.415,0,0,0,3.633,1.664,4.062,4.062,0,0,0,4.246-2.907h5.776a9.776,9.776,0,0,1-3.481,5.469,10.255,10.255,0,0,1-6.5,2.027,10.732,10.732,0,0,1-5.432-1.358,9.564,9.564,0,0,1-3.71-3.825,13.046,13.046,0,0,1,0-11.513" transform="translate(-551.309 -49.124)" fill="#fff"/>
      <path id="Path_222" data-name="Path 222" d="M843.1,87.374a9.767,9.767,0,0,1-3.844-3.844,11.519,11.519,0,0,1-1.4-5.737,11.277,11.277,0,0,1,1.434-5.738,9.969,9.969,0,0,1,3.92-3.844,12.006,12.006,0,0,1,11.092,0,9.973,9.973,0,0,1,3.921,3.844,11.273,11.273,0,0,1,1.434,5.738,11.051,11.051,0,0,1-1.472,5.737,10.2,10.2,0,0,1-3.978,3.844,11.568,11.568,0,0,1-5.6,1.358,11.156,11.156,0,0,1-5.508-1.358m8.243-4.016a5.142,5.142,0,0,0,2.046-2.123,7.153,7.153,0,0,0,.765-3.442,6.383,6.383,0,0,0-1.587-4.647,5.218,5.218,0,0,0-3.882-1.626,5.1,5.1,0,0,0-3.844,1.626,6.478,6.478,0,0,0-1.549,4.647A6.575,6.575,0,0,0,844.8,82.44a4.973,4.973,0,0,0,3.806,1.626,5.567,5.567,0,0,0,2.735-.708" transform="translate(-615.659 -49.124)" fill="#fff"/>
      <path id="Path_223" data-name="Path 223" d="M125.4,23.6a11.8,11.8,0,1,0-11.935-11.8V23.6Z" transform="translate(-83.374)" fill="#466ffd"/>
      <path id="Path_224" data-name="Path 224" d="M135.585,28.071A5.922,5.922,0,1,1,141.647,34L135.585,34Z" transform="translate(-99.628 -16.273)" fill="#88fbd2"/>
      <path id="Path_225" data-name="Path 225" d="M150.112,39.5a2.825,2.825,0,1,1,2.825-2.825,2.825,2.825,0,0,1-2.825,2.825" transform="translate(-108.227 -24.872)" fill="#466ffd"/>
      <path id="Path_226" data-name="Path 226" d="M23.6,11.679A11.8,11.8,0,1,0,11.8,23.615H23.6Z" transform="translate(0 -0.018)" fill="#88fbd2"/>
      <path id="Path_227" data-name="Path 227" d="M28.071,34.039A5.922,5.922,0,1,1,34,27.977L34,34.039Z" transform="translate(-16.273 -16.309)" fill="#466ffd"/>
      <path id="Path_228" data-name="Path 228" d="M11.655,113.422a11.8,11.8,0,1,0,11.935,11.8v-11.8Z" transform="translate(0 -83.338)" fill="#88fbd2"/>
      <path id="Path_229" data-name="Path 229" d="M34.015,141.493a5.922,5.922,0,1,1-6.062-5.925l6.062-.006Z" transform="translate(-16.291 -99.61)" fill="#466ffd"/>
      <path id="Path_230" data-name="Path 230" d="M113.422,125.374a11.8,11.8,0,1,0,11.8-11.935h-11.8Z" transform="translate(-83.338 -83.355)" fill="#88fbd2"/>
      <path id="Path_231" data-name="Path 231" d="M141.493,135.561a5.922,5.922,0,1,1-5.925,6.062l-.006-6.062Z" transform="translate(-99.61 -99.61)" fill="#466ffd"/>
    </g>
  </g>
</svg>
