<svg id="logo_navbar" xmlns="http://www.w3.org/2000/svg" xmlns:xlink="http://www.w3.org/1999/xlink" width="285.997" height="62.92" viewBox="0 0 285.997 62.92">
  <defs>
    <clipPath id="clip-path">
      <rect id="Rectangle_2" data-name="Rectangle 2" width="285.997" height="62.92" fill="none"/>
    </clipPath>
  </defs>
  <path id="Path_1" data-name="Path 1" d="M279.213,72.614H266.75l-2.062,5.963H258.1L269.35,47.239h7.308l11.253,31.338h-6.635Zm-1.7-5.021L272.981,54.5l-4.528,13.091Z" transform="translate(-177.869 -32.555)" fill="#2c2d41"/>
  <g id="Group_2" data-name="Group 2">
    <g id="Group_1" data-name="Group 1" clip-path="url(#clip-path)">
      <path id="Path_2" data-name="Path 2" d="M367.572,59.69V71.705a2.374,2.374,0,0,0,.605,1.816,2.969,2.969,0,0,0,2.04.56h2.914v5.29h-3.945q-7.935,0-7.935-7.711V59.69h-2.959V54.534h2.959V48.392h6.321v6.142h5.559V59.69Z" transform="translate(-246.919 -33.35)" fill="#2c2d41"/>
      <rect id="Rectangle_1" data-name="Rectangle 1" width="6.277" height="33.176" transform="translate(131.385 12.846)" fill="#2c2d41"/>
      <path id="Path_3" data-name="Path 3" d="M460.635,51.735a11.01,11.01,0,0,1,4.08-4.483,10.865,10.865,0,0,1,5.761-1.569A10.123,10.123,0,0,1,475.34,46.8a9.876,9.876,0,0,1,3.34,2.824V46.086H485V70.923H478.68V67.292a9.339,9.339,0,0,1-3.34,2.892,10.221,10.221,0,0,1-4.909,1.143,10.555,10.555,0,0,1-5.716-1.614,11.289,11.289,0,0,1-4.08-4.55,14.6,14.6,0,0,1-1.5-6.747,14.369,14.369,0,0,1,1.5-6.68m17.148,2.847a6.329,6.329,0,0,0-2.421-2.511,6.471,6.471,0,0,0-3.273-.874,6.3,6.3,0,0,0-5.627,3.34,7.794,7.794,0,0,0-.919,3.878,8.047,8.047,0,0,0,.919,3.923,6.608,6.608,0,0,0,2.421,2.578,6.142,6.142,0,0,0,3.206.9,6.47,6.47,0,0,0,3.273-.874,6.323,6.323,0,0,0,2.421-2.511,9.028,9.028,0,0,0,0-7.845m-4.842-14.01-6.68,3.766V39.765l6.68-3.632,6.635,3.632v4.573Z" transform="translate(-316.414 -24.901)" fill="#2c2d41"/>
      <path id="Path_4" data-name="Path 4" d="M583.7,69.8q2.734,2.8,2.735,7.823V92.194h-6.276V78.475a6.442,6.442,0,0,0-1.48-4.55,5.242,5.242,0,0,0-4.035-1.592,5.37,5.37,0,0,0-4.1,1.592,6.378,6.378,0,0,0-1.5,4.55V92.194h-6.277V67.356h6.277V70.45a8.674,8.674,0,0,1,3.205-2.533A9.924,9.924,0,0,1,576.525,67a9.575,9.575,0,0,1,7.173,2.8" transform="translate(-387.83 -46.172)" fill="#2c2d41"/>
      <path id="Path_5" data-name="Path 5" d="M660.523,59.69V71.705a2.374,2.374,0,0,0,.605,1.816,2.969,2.969,0,0,0,2.04.56h2.914v5.29h-3.945q-7.935,0-7.936-7.711V59.69h-2.959V54.534H654.2V48.392h6.322v6.142h5.559V59.69Z" transform="translate(-448.808 -33.35)" fill="#2c2d41"/>
      <path id="Path_6" data-name="Path 6" d="M713.667,41.278a3.68,3.68,0,0,1,0-5.245,4.134,4.134,0,0,1,5.514,0,3.681,3.681,0,0,1,0,5.245,4.134,4.134,0,0,1-5.514,0m5.851,28.85h-6.277V45.291h6.277Z" transform="translate(-491.07 -24.106)" fill="#2c2d41"/>
      <path id="Path_7" data-name="Path 7" d="M751.852,72.929a11.215,11.215,0,0,1,4.349-4.483,12.586,12.586,0,0,1,6.366-1.592,12.243,12.243,0,0,1,7.644,2.309,11.237,11.237,0,0,1,4.057,6.478H767.5a4.953,4.953,0,0,0-1.816-2.533,5.274,5.274,0,0,0-3.161-.919,5.176,5.176,0,0,0-4.259,1.95,8.629,8.629,0,0,0-1.569,5.537,8.549,8.549,0,0,0,1.569,5.492,5.175,5.175,0,0,0,4.259,1.95,4.761,4.761,0,0,0,4.977-3.407h6.77a11.46,11.46,0,0,1-4.08,6.411,12.019,12.019,0,0,1-7.621,2.376,12.58,12.58,0,0,1-6.366-1.592,11.21,11.21,0,0,1-4.349-4.483,15.291,15.291,0,0,1,0-13.495" transform="translate(-517.062 -46.073)" fill="#2c2d41"/>
      <path id="Path_8" data-name="Path 8" d="M844,90.907a11.448,11.448,0,0,1-4.506-4.506,13.5,13.5,0,0,1-1.636-6.725,13.216,13.216,0,0,1,1.681-6.725,11.684,11.684,0,0,1,4.6-4.505,14.072,14.072,0,0,1,13,0,11.69,11.69,0,0,1,4.6,4.505,13.214,13.214,0,0,1,1.681,6.725,12.951,12.951,0,0,1-1.726,6.725,11.954,11.954,0,0,1-4.663,4.506,13.559,13.559,0,0,1-6.568,1.592A13.076,13.076,0,0,1,844,90.907m9.661-4.707a6.028,6.028,0,0,0,2.4-2.488,8.386,8.386,0,0,0,.9-4.035,7.481,7.481,0,0,0-1.86-5.447,6.116,6.116,0,0,0-4.55-1.905,5.974,5.974,0,0,0-4.506,1.905,7.593,7.593,0,0,0-1.815,5.447,7.707,7.707,0,0,0,1.771,5.447,5.829,5.829,0,0,0,4.461,1.905,6.525,6.525,0,0,0,3.206-.83" transform="translate(-577.414 -46.073)" fill="#2c2d41"/>
      <g id="Group_245" data-name="Group 245">
        <path id="Path_9" data-name="Path 9" d="M127.454,27.658a13.829,13.829,0,1,0-13.99-13.829V27.665Z" transform="translate(-78.194)" fill="#466ffd"/>
        <path id="Path_10" data-name="Path 10" d="M135.585,29.091a6.941,6.941,0,1,1,7.106,6.945l-7.106.007Z" transform="translate(-93.439 -15.262)" fill="#88fbd2"/>
        <path id="Path_11" data-name="Path 11" d="M150.6,40.471a3.311,3.311,0,1,1,3.311-3.311,3.311,3.311,0,0,1-3.311,3.311" transform="translate(-101.504 -23.327)" fill="#466ffd"/>
        <path id="Path_12" data-name="Path 12" d="M27.658,13.685a13.829,13.829,0,1,0-13.829,13.99H27.665Z" transform="translate(0 -0.017)" fill="#88fbd2"/>
        <path id="Path_13" data-name="Path 13" d="M29.091,36.077a6.941,6.941,0,1,1,6.945-7.106l.007,7.106Z" transform="translate(-15.262 -15.296)" fill="#466ffd"/>
        <path id="Path_14" data-name="Path 14" d="M13.661,113.423a13.829,13.829,0,1,0,13.99,13.829V113.415Z" transform="translate(0 -78.161)" fill="#88fbd2"/>
        <path id="Path_15" data-name="Path 15" d="M36.053,142.514a6.941,6.941,0,1,1-7.106-6.945l7.106-.007Z" transform="translate(-15.279 -93.423)" fill="#466ffd"/>
        <path id="Path_16" data-name="Path 16" d="M113.423,127.429a13.829,13.829,0,1,0,13.829-13.99H113.415Z" transform="translate(-78.161 -78.177)" fill="#88fbd2"/>
        <path id="Path_17" data-name="Path 17" d="M142.514,135.561a6.941,6.941,0,1,1-6.945,7.106l-.007-7.106Z" transform="translate(-93.423 -93.423)" fill="#466ffd"/>
      </g>
    </g>
  </g>
</svg>
