<svg id="Group_121" data-name="Group 121" xmlns="http://www.w3.org/2000/svg" width="148.525" height="23.059" viewBox="0 0 148.525 23.059">
  <path id="Path_206" data-name="Path 206" d="M37.327.811a1.443,1.443,0,0,0-2.594,0l-2.9,5.958-6.467.955a1.441,1.441,0,0,0-.8,2.45l4.692,4.643-1.108,6.561a1.445,1.445,0,0,0,2.1,1.513L36.034,19.8l5.778,3.085a1.445,1.445,0,0,0,2.1-1.513L42.8,14.815l4.692-4.643a1.441,1.441,0,0,0-.8-2.45l-6.471-.955Z" transform="translate(100.603)" fill="#ffd52e"/>
  <path id="Path_207" data-name="Path 207" d="M37.327.811a1.443,1.443,0,0,0-2.594,0l-2.9,5.958-6.467.955a1.441,1.441,0,0,0-.8,2.45l4.692,4.643-1.108,6.561a1.445,1.445,0,0,0,2.1,1.513L36.034,19.8l5.778,3.085a1.445,1.445,0,0,0,2.1-1.513L42.8,14.815l4.692-4.643a1.441,1.441,0,0,0-.8-2.45l-6.471-.955Z" transform="translate(69.021)" fill="#ffd52e"/>
  <path id="Path_208" data-name="Path 208" d="M37.327.811a1.443,1.443,0,0,0-2.594,0l-2.9,5.958-6.467.955a1.441,1.441,0,0,0-.8,2.45l4.692,4.643-1.108,6.561a1.445,1.445,0,0,0,2.1,1.513L36.034,19.8l5.778,3.085a1.445,1.445,0,0,0,2.1-1.513L42.8,14.815l4.692-4.643a1.441,1.441,0,0,0-.8-2.45l-6.471-.955Z" transform="translate(6.648)" fill="#ffd52e"/>
  <path id="Path_209" data-name="Path 209" d="M37.327.811a1.443,1.443,0,0,0-2.594,0l-2.9,5.958-6.467.955a1.441,1.441,0,0,0-.8,2.45l4.692,4.643-1.108,6.561a1.445,1.445,0,0,0,2.1,1.513L36.034,19.8l5.778,3.085a1.445,1.445,0,0,0,2.1-1.513L42.8,14.815l4.692-4.643a1.441,1.441,0,0,0-.8-2.45l-6.471-.955Z" transform="translate(-24.144)" fill="#ffd52e"/>
  <path id="Path_210" data-name="Path 210" d="M37.327.811a1.443,1.443,0,0,0-2.594,0l-2.9,5.958-6.467.955a1.441,1.441,0,0,0-.8,2.45l4.692,4.643-1.108,6.561a1.445,1.445,0,0,0,2.1,1.513L36.034,19.8l5.778,3.085a1.445,1.445,0,0,0,2.1-1.513L42.8,14.815l4.692-4.643a1.441,1.441,0,0,0-.8-2.45l-6.471-.955Z" transform="translate(38.23)" fill="#ffd52e"/>
</svg>
